{
    "asset" : {
        "generator" : "Khronos glTF Blender I/O v1.6.16",
        "version" : "2.0"
    },
    "extensionsUsed" : [
        "KHR_lights_punctual"
    ],
    "extensionsRequired" : [
        "KHR_lights_punctual"
    ],
    "extensions" : {
        "KHR_lights_punctual" : {
            "lights" : [
                {
                    "color" : [
                        1,
                        1,
                        1
                    ],
                    "intensity" : 800,
                    "type" : "point",
                    "name" : "Point"
                },
                {
                    "color" : [
                        1,
                        1,
                        1
                    ],
                    "intensity" : 800,
                    "type" : "point",
                    "name" : "Point.001"
                },
                {
                    "color" : [
                        1,
                        1,
                        1
                    ],
                    "intensity" : 1,
                    "type" : "directional",
                    "name" : "Sun"
                }
            ]
        }
    },
    "scene" : 0,
    "scenes" : [
        {
            "name" : "Scene",
            "nodes" : [
                1,
                2,
                4,
                5,
                7
            ]
        }
    ],
    "nodes" : [
        {
            "extensions" : {
                "KHR_lights_punctual" : {
                    "light" : 0
                }
            },
            "name" : "Point_Orientation",
            "rotation" : [
                -0.7071067690849304,
                0,
                0,
                0.7071067690849304
            ]
        },
        {
            "children" : [
                0
            ],
            "name" : "Point",
            "translation" : [
                5.191588401794434,
                4.198508262634277,
                -1.0700289011001587
            ]
        },
        {
            "mesh" : 0,
            "name" : "AirHangar",
            "scale" : [
                0.009999999776482582,
                0.009999999776482582,
                0.009999999776482582
            ],
            "translation" : [
                0,
                1.479892373085022,
                0
            ]
        },
        {
            "extensions" : {
                "KHR_lights_punctual" : {
                    "light" : 1
                }
            },
            "name" : "Point.001_Orientation",
            "rotation" : [
                -0.7071067690849304,
                0,
                0,
                0.7071067690849304
            ]
        },
        {
            "children" : [
                3
            ],
            "name" : "Point.001",
            "translation" : [
                -4.9072723388671875,
                4.198508262634277,
                -1.0700289011001587
            ]
        },
        {
            "mesh" : 1,
            "name" : "Plane",
            "translation" : [
                0,
                -0.8000665903091431,
                0
            ]
        },
        {
            "extensions" : {
                "KHR_lights_punctual" : {
                    "light" : 2
                }
            },
            "name" : "Sun_Orientation",
            "rotation" : [
                -0.7071067690849304,
                0,
                0,
                0.7071067690849304
            ]
        },
        {
            "children" : [
                6
            ],
            "name" : "Sun",
            "translation" : [
                18.289209365844727,
                18.683425903320312,
                0
            ]
        }
    ],
    "materials" : [
        {
            "doubleSided" : true,
            "name" : "AirHangar",
            "pbrMetallicRoughness" : {
                "baseColorFactor" : [
                    0.5597382187843323,
                    0.5413939356803894,
                    0.5925811529159546,
                    1
                ],
                "roughnessFactor" : 0.5527864098548889
            }
        },
        {
            "doubleSided" : true,
            "name" : "concrete",
            "normalTexture" : {
                "index" : 0,
                "scale" : 10
            },
            "pbrMetallicRoughness" : {
                "baseColorTexture" : {
                    "index" : 1
                },
                "metallicFactor" : 0,
                "metallicRoughnessTexture" : {
                    "index" : 2
                }
            }
        }
    ],
    "meshes" : [
        {
            "name" : "Hangar",
            "primitives" : [
                {
                    "attributes" : {
                        "POSITION" : 0,
                        "NORMAL" : 1,
                        "TEXCOORD_0" : 2
                    },
                    "indices" : 3,
                    "material" : 0
                }
            ]
        },
        {
            "name" : "Plane",
            "primitives" : [
                {
                    "attributes" : {
                        "POSITION" : 4,
                        "NORMAL" : 5,
                        "TEXCOORD_0" : 6
                    },
                    "indices" : 7,
                    "material" : 1
                }
            ]
        }
    ],
    "textures" : [
        {
            "sampler" : 0,
            "source" : 0
        },
        {
            "sampler" : 0,
            "source" : 1
        },
        {
            "sampler" : 0,
            "source" : 2
        }
    ],
    "images" : [
        {
            "bufferView" : 8,
            "mimeType" : "image/png",
            "name" : "TexturesCom_Concrete_Polished_1K_normal"
        },
        {
            "bufferView" : 9,
            "mimeType" : "image/png",
            "name" : "TexturesCom_Concrete_Polished_1K_albedo"
        },
        {
            "bufferView" : 10,
            "mimeType" : "image/png",
            "name" : "TexturesCom_Concrete_Polished_1K_roughness"
        }
    ],
    "accessors" : [
        {
            "bufferView" : 0,
            "componentType" : 5126,
            "count" : 15787,
            "max" : [
                1090.83837890625,
                611.4827880859375,
                1070.00048828125
            ],
            "min" : [
                -1059.40966796875,
                -229.71163940429688,
                -843.8952026367188
            ],
            "type" : "VEC3"
        },
        {
            "bufferView" : 1,
            "componentType" : 5126,
            "count" : 15787,
            "type" : "VEC3"
        },
        {
            "bufferView" : 2,
            "componentType" : 5126,
            "count" : 15787,
            "type" : "VEC2"
        },
        {
            "bufferView" : 3,
            "componentType" : 5123,
            "count" : 26358,
            "type" : "SCALAR"
        },
        {
            "bufferView" : 4,
            "componentType" : 5126,
            "count" : 4,
            "max" : [
                10,
                0,
                10
            ],
            "min" : [
                -10,
                0,
                -10
            ],
            "type" : "VEC3"
        },
        {
            "bufferView" : 5,
            "componentType" : 5126,
            "count" : 4,
            "type" : "VEC3"
        },
        {
            "bufferView" : 6,
            "componentType" : 5126,
            "count" : 4,
            "type" : "VEC2"
        },
        {
            "bufferView" : 7,
            "componentType" : 5123,
            "count" : 6,
            "type" : "SCALAR"
        }
    ],
    "bufferViews" : [
        {
            "buffer" : 0,
            "byteLength" : 189444,
            "byteOffset" : 0
        },
        {
            "buffer" : 0,
            "byteLength" : 189444,
            "byteOffset" : 189444
        },
        {
            "buffer" : 0,
            "byteLength" : 126296,
            "byteOffset" : 378888
        },
        {
            "buffer" : 0,
            "byteLength" : 52716,
            "byteOffset" : 505184
        },
        {
            "buffer" : 0,
            "byteLength" : 48,
            "byteOffset" : 557900
        },
        {
            "buffer" : 0,
            "byteLength" : 48,
            "byteOffset" : 557948
        },
        {
            "buffer" : 0,
            "byteLength" : 32,
            "byteOffset" : 557996
        },
        {
            "buffer" : 0,
            "byteLength" : 12,
            "byteOffset" : 558028
        },
        {
            "buffer" : 0,
            "byteLength" : 112269,
            "byteOffset" : 558040
        },
        {
            "buffer" : 0,
            "byteLength" : 1345666,
            "byteOffset" : 670312
        },
        {
            "buffer" : 0,
            "byteLength" : 827067,
            "byteOffset" : 2015980
        }
    ],
    "samplers" : [
        {
            "magFilter" : 9729,
            "minFilter" : 9987
        }
    ],
    "buffers" : [
        {
            "byteLength" : 2843048,
            "uri" : "data:application/octet-stream;base64,"
        }
    ]
}
